<svg width="64" height="64" viewBox="0 0 64 64" fill="none" xmlns="http://www.w3.org/2000/svg">
<mask id="path-1-inside-1_150_511" fill="white">
<path fill-rule="evenodd" clip-rule="evenodd" d="M40 0H24V24H0V40H24V64H40V40H64V24H40V0Z"/>
</mask>
<path fill-rule="evenodd" clip-rule="evenodd" d="M40 0H24V24H0V40H24V64H40V40H64V24H40V0Z" fill="#22B943"/>
<path d="M24 0V-2H22V0H24ZM40 0H42V-2H40V0ZM24 24V26H26V24H24ZM0 24V22H-2V24H0ZM0 40H-2V42H0V40ZM24 40H26V38H24V40ZM24 64H22V66H24V64ZM40 64V66H42V64H40ZM40 40V38H38V40H40ZM64 40V42H66V40H64ZM64 24H66V22H64V24ZM40 24H38V26H40V24ZM24 2H40V-2H24V2ZM26 24V0H22V24H26ZM0 26H24V22H0V26ZM2 40V24H-2V40H2ZM24 38H0V42H24V38ZM26 64V40H22V64H26ZM40 62H24V66H40V62ZM38 40V64H42V40H38ZM64 38H40V42H64V38ZM62 24V40H66V24H62ZM40 26H64V22H40V26ZM38 0V24H42V0H38Z" fill="#0E6731" mask="url(#path-1-inside-1_150_511)"/>
</svg>
