<svg width="76" height="53" viewBox="0 0 76 53" fill="none" xmlns="http://www.w3.org/2000/svg">
<path fill-rule="evenodd" clip-rule="evenodd" d="M19.1279 52.5L19.1277 52.4998C18.3244 51.5635 17.5211 50.6271 16.6795 49.6561C15.8762 50.7659 15.2641 50.2804 14.6903 49.4133C14.6654 49.3757 14.6386 49.3364 14.6113 49.2962C14.5127 49.1512 14.4059 48.9942 14.346 48.8584C13.8869 47.2977 13.2748 46.1532 11.0178 46.1879C10.5702 46.2082 10.1095 45.8368 9.62806 45.4486C9.28654 45.1733 8.93458 44.8896 8.56944 44.7312C8.36657 44.6699 8.14045 44.6207 7.91262 44.571C7.36712 44.4522 6.81176 44.3312 6.54191 44.0376C5.33876 42.6135 4.28158 41.1101 3.21736 39.5965L3.21731 39.5965C3.06339 39.3776 2.90933 39.1585 2.75465 38.9394C2.55351 38.643 2.40195 38.3018 2.2348 37.9254C2.14762 37.7291 2.0562 37.5233 1.95129 37.3093C1.60711 37.552 1.37762 37.7254 1.14816 37.8987L1.14793 37.8989C1.03316 37.7948 0.9184 37.6908 0.880145 37.5868C-0.344021 34.9509 -0.152744 32.2804 0.61236 29.5752C0.859562 28.7628 1.13172 27.973 1.40868 27.1693L1.40889 27.1687C1.47474 26.9776 1.54087 26.7857 1.60699 26.5926C1.87478 25.7602 2.10431 24.9972 1.37746 24.1648C0.765381 23.5059 1.07142 22.7775 1.64525 22.0492C2.22584 21.3584 2.59991 20.5427 2.96335 19.7502L3.02244 19.6215C3.20096 19.2516 3.27747 18.8508 3.35398 18.45C3.39224 18.2496 3.43049 18.0492 3.4815 17.8527C3.53023 17.6686 3.58241 17.4842 3.6346 17.2996C4.07411 15.7458 4.5148 14.1878 2.90767 12.8238C2.83116 12.7545 2.7929 12.6851 2.7929 12.5811C2.70477 11.7121 2.55002 10.8461 2.39534 9.98046C2.01288 7.84012 1.63084 5.70218 2.25733 3.52906C2.48686 2.62733 3.06069 1.76028 3.71103 1.06664C5.0117 -0.355323 6.96272 -0.320642 8.45467 0.962591C9.25803 1.65623 10.0996 2.28051 10.9413 2.90478C11.8976 3.6331 13.007 3.73715 14.2312 3.80651C15.8794 3.90189 17.5275 4.31783 19.1757 4.73378C19.3255 4.77159 19.4754 4.8094 19.6252 4.84697C19.8547 4.91633 20.0842 5.67934 19.9695 6.06084C19.893 6.30361 19.2044 6.61575 18.8601 6.54639C18.3192 6.48101 17.7784 6.19997 17.2696 5.93557L17.1769 5.88743C15.4171 4.9857 13.7339 5.19379 12.0124 5.99148C11.6384 6.16103 11.2341 6.27578 10.8298 6.39053C10.3244 6.53397 9.8191 6.67741 9.37279 6.92789L9.27196 6.98439C8.48527 7.42491 7.52546 7.96237 7.26876 8.62731C6.38889 11.1244 5.77681 13.6909 5.16472 16.2573C5.02047 16.8459 4.94421 17.4498 4.86784 18.0546C4.78219 18.7329 4.6964 19.4123 4.51439 20.0724C4.38334 20.5476 4.11513 21.0002 3.84502 21.456C3.64202 21.7986 3.43795 22.143 3.29022 22.5001C3.1372 22.8816 3.21371 23.6793 3.36673 23.714C4.33272 24.016 4.28357 24.5809 4.22946 25.2027C4.22143 25.295 4.21329 25.3886 4.20834 25.4827C4.09358 27.2862 4.01707 29.0897 4.01707 30.8931C4.01707 31.2602 4.16774 31.6273 4.34726 32.0647C4.43911 32.2885 4.53852 32.5306 4.62915 32.8006C5.08822 32.0376 5.356 31.5521 5.7003 30.8931C5.7357 31.2569 5.76746 31.5975 5.79783 31.9232C5.8659 32.6533 5.92697 33.3083 6.00634 33.9798C6.06372 33.9972 6.13066 34.0058 6.1976 34.0145C6.26455 34.0232 6.3315 34.0319 6.38889 34.0492C6.54452 33.7872 6.68722 33.5369 6.86206 33.2302L6.86215 33.23C6.98813 33.009 7.1308 32.7588 7.30702 32.4538C7.26876 35.4365 7.38353 38.0723 10.1762 40.2226V34.9509C9.79367 35.8178 9.52591 36.3727 9.25817 36.9275L9.25815 36.9275L9.25803 36.9278C8.14863 35.5752 8.18689 33.2862 9.52582 29.4365C9.03738 29.7071 8.64518 29.9079 8.17173 30.1503L8.17132 30.1505C7.97742 30.2498 7.76989 30.3561 7.53654 30.4769C7.6156 30.2082 7.68955 29.9533 7.76103 29.7069C7.96627 28.9995 8.15117 28.3622 8.37816 27.6677C8.11038 27.7197 7.87128 27.7718 7.63218 27.8238C7.39309 27.8758 7.15399 27.9278 6.88621 27.9798C6.65668 26.8007 7.34527 26.107 8.30165 25.5521C9.06675 25.1012 9.29628 25.6562 9.4493 26.2111C9.50028 26.3882 9.54936 26.5654 9.59824 26.7417L9.59824 26.7418C9.76945 27.3596 9.93808 27.9682 10.1762 28.5348C10.3674 28.9163 10.8265 29.1937 11.4386 29.3671C11.3411 29.0138 11.2368 28.6667 11.1256 28.2966L11.1256 28.2966C10.9748 27.795 10.8113 27.2512 10.6352 26.5926L10.8771 26.7861C11.3794 27.1882 11.7003 27.445 12.1654 27.8064V26.3845C12.223 26.4129 12.2803 26.4419 12.3377 26.4708C13.1183 26.8647 13.8863 27.2521 14.9198 26.3151C12.3567 26.2111 11.6299 24.7197 11.2473 22.9856C10.0231 23.0203 9.71709 22.6388 10.0614 21.7024C10.0996 21.5637 10.1762 21.4596 10.2527 21.3556C12.1272 18.7198 12.4332 18.9279 13.9252 21.1822C14.4993 22.0671 15.1166 22.9325 15.7931 23.8809L15.7932 23.8811L15.7933 23.8812C16.0182 24.1965 16.2497 24.521 16.4883 24.8585C17.4064 23.3325 16.8326 22.1533 16.2205 21.1128C15.7652 20.339 15.1618 19.6418 14.489 18.8645L14.4888 18.8643C14.2571 18.5966 14.0171 18.3193 13.7721 18.0261C14.1575 18.0813 14.4677 18.117 14.788 18.1538L14.7882 18.1538C15.072 18.1865 15.3638 18.22 15.7232 18.2689C15.4171 17.1938 15.1111 16.2228 14.7286 15.009L14.7285 15.0088C15.3406 15.3209 15.6849 15.4943 16.2587 15.7718C16.1295 15.2057 16.0124 14.7055 15.9007 14.2279C15.8139 13.857 15.7303 13.4998 15.6466 13.136C15.704 13.1013 15.771 13.0753 15.8379 13.0493C15.9049 13.0232 15.9718 12.9972 16.0292 12.9626L17.7507 14.8354C17.8081 14.818 17.875 14.8094 17.9419 14.8007L17.942 14.8007C18.0089 14.792 18.0758 14.7834 18.1332 14.766C17.9802 13.7256 17.8272 12.6851 17.7124 12.0955L17.7121 12.0954L17.7121 12.0954C16.4499 11.5752 15.6083 11.2284 14.652 10.8123C14.4262 11.7448 13.8878 11.5139 13.3281 11.2738C13.0344 11.1478 12.7348 11.0192 12.4715 11.055C12.5078 12.3741 12.475 12.3763 11.1563 12.4627L11.1559 12.4627C11.0878 12.4672 11.0163 12.4719 10.9413 12.477C10.1507 12.5464 9.34307 12.6928 8.50714 12.8444L8.50712 12.8444C8.08914 12.9202 7.66407 12.9972 7.23051 13.0666C7.42447 12.0115 8.24064 11.5751 9.08295 11.1247C9.40351 10.9533 9.72785 10.7798 10.0231 10.5695C9.87898 10.4098 9.73483 10.2683 9.5963 10.1323L9.59629 10.1323C9.40394 9.9435 9.22242 9.76533 9.06675 9.56372C9.04268 9.5288 9.01618 9.49113 8.98847 9.45175L8.98834 9.45156C8.79596 9.1781 8.54565 8.82228 8.64595 8.73136C8.87548 8.48858 9.33454 8.28049 9.67884 8.2458C10.0515 8.22328 10.4081 8.2739 10.8114 8.33116C11.029 8.36207 11.2603 8.3949 11.5151 8.41922C11.4768 8.00303 11.4386 7.62153 11.3238 6.75448C12.1871 7.187 12.9559 7.55836 13.7185 7.92668L13.7186 7.92672L13.7186 7.92673C14.2401 8.17861 14.7586 8.42906 15.3023 8.69667C15.2513 8.21117 15.2003 7.77189 15.138 7.23503L15.138 7.23475L15.1379 7.23442C15.1068 6.96609 15.0728 6.67336 15.0346 6.3383C15.3157 6.54817 15.561 6.70621 15.7738 6.84322L15.7738 6.84324C16.0532 7.02319 16.2762 7.16686 16.45 7.34408C18.4775 9.56372 19.7399 12.0608 19.7017 15.0088C19.6762 17.5984 19.6847 20.188 19.6932 22.7776L19.6932 22.7793C19.6974 24.0735 19.7017 25.3677 19.7017 26.6619C19.3294 26.5307 18.9906 26.4095 18.6188 26.2766L18.6174 26.2761C18.302 26.1633 17.9629 26.0421 17.5594 25.8989C17.7124 26.3382 17.8314 26.6542 17.9505 26.9702C18.01 27.1282 18.0695 27.2862 18.1332 27.4596C16.6795 27.3556 15.4171 27.529 15.2258 29.2284C15.4586 29.3128 15.6914 29.3844 15.9586 29.4666C16.1306 29.5194 16.3168 29.5767 16.5265 29.6446C13.9859 32.5499 14.1252 35.791 14.2643 39.0251C14.3095 40.0763 14.3546 41.1268 14.3077 42.1648C14.2695 43.1359 14.8815 43.6908 16.0292 43.6561C16.4397 43.6412 16.8431 43.6199 17.2637 43.5978H17.2637C17.823 43.5683 18.4127 43.5372 19.0896 43.5174C18.9318 43.3207 18.8452 43.1701 18.7879 43.0704C18.734 42.9766 18.7059 42.9278 18.6688 42.9278C17.5211 42.7891 16.603 42.4422 16.1822 41.3324C15.5701 39.6677 14.9963 38.0376 15.6466 36.3035C15.9527 35.5405 19.0131 35.2977 19.4722 35.9914C19.893 36.6157 19.7399 37.1706 18.8218 37.344C18.5923 37.3787 18.3532 37.3873 18.1141 37.396C17.875 37.4047 17.6359 37.4133 17.4064 37.448C16.1822 37.6561 15.9144 38.3151 16.3735 39.1128C16.6106 39.0788 16.8437 39.0227 17.0687 38.9686C17.5334 38.8567 17.9637 38.7532 18.3245 38.87C18.545 38.9449 18.6066 39.3979 18.6668 39.8398L18.6668 39.8399C18.6901 40.0114 18.7132 40.1812 18.7453 40.3266C18.4446 40.385 18.144 40.4325 17.7959 40.4875L17.7956 40.4875C17.5238 40.5305 17.223 40.5779 16.8708 40.6388C17.0113 40.7314 17.1517 40.8549 17.2936 40.9796C17.5768 41.2287 17.8656 41.4827 18.1715 41.5058C19.8262 41.5604 19.7537 42.4515 19.6845 43.302C19.6657 43.5329 19.6471 43.7609 19.6634 43.9682C19.7651 45.0436 18.966 45.0574 18.1972 45.0707C18.0982 45.0724 17.9997 45.0741 17.9037 45.0781C17.7124 45.0781 17.5594 45.1474 17.2151 45.5289C17.3783 45.5962 17.5473 45.653 17.7153 45.7095C17.9805 45.7987 18.2434 45.8871 18.4775 46.0145C18.5698 46.0677 18.6749 46.1226 18.7832 46.1791L18.7834 46.1792C19.1691 46.3806 19.5953 46.6032 19.6252 46.8468C19.7072 48.0619 19.6915 49.2947 19.6759 50.5199V50.52C19.6697 51.0083 19.6634 51.4954 19.6634 51.9798C19.5104 52.2919 19.3191 52.396 19.1279 52.5ZM4.47613 11.2978C4.57177 11.2978 4.66741 11.2891 4.76304 11.2805C4.85868 11.2718 4.95432 11.2631 5.04996 11.2631C5.02618 10.9937 4.98762 10.7242 4.94921 10.4558C4.86403 9.86049 4.77958 9.27034 4.85868 8.69667C4.93703 8.12839 5.1937 7.57627 5.45825 7.00721C5.58119 6.74277 5.70583 6.47466 5.81506 6.19957C5.63654 6.15333 5.40702 6.10709 5.12649 6.05057L5.12648 6.05057L5.12645 6.05057C4.98619 6.02231 4.83317 5.99148 4.66741 5.9568C5.08821 5.43657 5.39425 5.05506 5.73855 4.6042C5.35602 4.50016 5.04999 4.43079 4.74396 4.36143L4.74395 4.36143L4.74392 4.36142C5.62379 3.11287 6.04459 3.04351 7.19225 3.91056C7.29421 3.98877 7.39616 4.0699 7.49878 4.15156L7.49879 4.15156C7.8967 4.46819 8.30453 4.7927 8.76071 4.9857C9.04153 5.10142 9.40753 5.09359 9.76777 5.08587C9.94734 5.08203 10.1255 5.07821 10.2909 5.08975C10.3089 5.0247 10.3184 4.95966 10.3274 4.89819V4.89818C10.3376 4.82855 10.3471 4.7635 10.3674 4.70824C10.0104 4.45391 9.64908 4.20342 9.28777 3.95294C8.56518 3.45198 7.84258 2.95102 7.15399 2.41923C5.89157 1.48282 5.16472 1.48282 4.20834 2.62733C3.74928 3.18224 3.44324 3.80651 3.1372 4.43079C2.7929 5.19379 2.75465 5.88743 4.05533 5.85275C4.02127 6.14088 3.98133 6.42673 3.94173 6.71006C3.71444 8.33652 3.49873 9.88006 4.47613 11.2978ZM13.007 23.2284H12.6627C12.7361 23.428 12.8017 23.6311 12.8669 23.8333L12.8669 23.8333C13.0058 24.2634 13.1431 24.6891 13.3513 25.0666C13.4274 25.2044 13.705 25.251 14.0394 25.307C14.2097 25.3356 14.3948 25.3666 14.5755 25.4134C14.0636 24.6593 13.632 24.075 13.2359 23.5388L13.2359 23.5387C13.1584 23.4337 13.0822 23.3306 13.007 23.2284ZM5.8916 23.4365C5.24126 23.3672 4.82045 23.3325 4.32313 23.2978C4.4936 22.8921 4.66407 22.4918 4.83288 22.0954L4.83294 22.0953L4.833 22.0951C5.2703 21.0682 5.6965 20.0674 6.08287 19.0666C6.39857 18.2284 6.67439 17.3782 6.94951 16.5301L6.94953 16.53L6.94955 16.53C7.14115 15.9393 7.33241 15.3498 7.53657 14.766L7.99563 14.8701C7.71497 16.2186 7.41372 17.5485 7.09188 18.9693C6.97504 19.4851 6.85548 20.0129 6.73321 20.5579C7.34529 20.3151 7.61308 20.2111 7.88087 20.1417C8.25698 20.7425 7.93713 21.3205 7.63187 21.8721C7.28511 22.4987 6.95717 23.0913 7.68959 23.6446C6.92449 25.1359 6.19763 26.5579 5.43253 28.0839C4.62267 26.6155 5.17403 25.2352 5.74419 23.8078L5.74427 23.8076C5.79353 23.6843 5.84293 23.5606 5.8916 23.4365ZM9.25804 18.7891C9.15284 19.7342 9.04764 20.6793 8.952 21.5984C10.597 20.107 10.903 17.1938 9.56408 15.9799C9.46844 16.899 9.36324 17.8441 9.25804 18.7891Z" fill="#D9D9D9"/>
<path d="M27.168 24.4375C24.2227 24.4375 22.75 22.3281 22.75 18.1094V9.21484C22.75 5.36328 24.4375 3.4375 27.8125 3.4375C29.2031 3.4375 30.2695 3.71875 31.0117 4.28125C31.7539 4.83594 32.2656 5.64844 32.5469 6.71875C32.8281 7.78906 32.9688 9.09375 32.9688 10.6328H28.9375V8.80469C28.9375 8.35938 28.875 7.98828 28.75 7.69141C28.6328 7.38672 28.3828 7.23438 28 7.23438C27.5234 7.23438 27.207 7.39453 27.0508 7.71484C26.9023 8.03516 26.8281 8.38672 26.8281 8.76953V18.7656C26.8281 19.3203 26.8984 19.7734 27.0391 20.125C27.1875 20.4688 27.4727 20.6406 27.8945 20.6406C28.332 20.6406 28.6211 20.4688 28.7617 20.125C28.9102 19.7734 28.9844 19.3125 28.9844 18.7422V15.8008H27.8828V12.2383H32.9219V24.25H31.2695L30.5664 22.5156C29.8477 23.7969 28.7148 24.4375 27.168 24.4375ZM37.6914 24.4375C36.7148 24.4375 35.9688 24.2109 35.4531 23.7578C34.9453 23.3047 34.5977 22.6836 34.4102 21.8945C34.2227 21.1055 34.1289 20.2109 34.1289 19.2109C34.1289 18.1406 34.2344 17.2656 34.4453 16.5859C34.6562 15.8984 35.0156 15.3359 35.5234 14.8984C36.0391 14.4609 36.7461 14.0898 37.6445 13.7852L40.2461 12.8945V11.0898C40.2461 10.1445 39.9375 9.67188 39.3203 9.67188C38.7578 9.67188 38.4766 10.0547 38.4766 10.8203V11.875H34.3984C34.3906 11.8125 34.3867 11.7344 34.3867 11.6406C34.3867 11.5391 34.3867 11.4258 34.3867 11.3008C34.3867 9.55078 34.7969 8.3125 35.6172 7.58594C36.4453 6.85156 37.7539 6.48438 39.543 6.48438C40.4805 6.48438 41.3203 6.65234 42.0625 6.98828C42.8047 7.31641 43.3906 7.80469 43.8203 8.45312C44.2578 9.10156 44.4766 9.90234 44.4766 10.8555V24.25H40.3047V22.1641C40.1016 22.8984 39.7656 23.4609 39.2969 23.8516C38.8281 24.2422 38.293 24.4375 37.6914 24.4375ZM39.3438 21.1797C39.6875 21.1797 39.9219 21.0352 40.0469 20.7461C40.1719 20.457 40.2344 20.1445 40.2344 19.8086V14.9102C39.6562 15.1445 39.207 15.4414 38.8867 15.8008C38.5664 16.1523 38.4062 16.6719 38.4062 17.3594V19.6211C38.4062 20.6602 38.7188 21.1797 39.3438 21.1797ZM46.0938 24.25V6.67188H50.1953V8.71094C50.3828 7.99219 50.7031 7.44141 51.1562 7.05859C51.6094 6.67578 52.2734 6.48438 53.1484 6.48438C53.8516 6.48438 54.4492 6.64844 54.9414 6.97656C55.4414 7.29687 55.793 7.72266 55.9961 8.25391C56.3164 7.67578 56.6914 7.23828 57.1211 6.94141C57.5586 6.63672 58.1797 6.48438 58.9844 6.48438C59.9609 6.48438 60.7109 6.69531 61.2344 7.11719C61.7656 7.53125 62.1328 8.10938 62.3359 8.85156C62.5469 9.58594 62.6523 10.4375 62.6523 11.4062V24.25H58.4688V11.3359C58.4688 10.2031 58.1797 9.63672 57.6016 9.63672C57.2969 9.63672 57.0625 9.74219 56.8984 9.95312C56.7344 10.1562 56.6211 10.4102 56.5586 10.7148C56.4961 11.0195 56.4648 11.3242 56.4648 11.6289V24.25H52.2812V11.3359C52.2812 10.9688 52.2344 10.6016 52.1406 10.2344C52.0547 9.86719 51.8281 9.68359 51.4609 9.68359C51.1484 9.68359 50.9062 9.79688 50.7344 10.0234C50.5625 10.25 50.4453 10.5312 50.3828 10.8672C50.3203 11.1953 50.2891 11.5195 50.2891 11.8398V24.25H46.0938ZM69.2266 24.4375C67.9766 24.4375 66.9805 24.2031 66.2383 23.7344C65.4961 23.2656 64.9648 22.5898 64.6445 21.707C64.3242 20.8242 64.1641 19.7617 64.1641 18.5195V11.4531C64.1641 9.82031 64.6328 8.58594 65.5703 7.75C66.5078 6.90625 67.7969 6.48438 69.4375 6.48438C72.8125 6.48438 74.5 8.14062 74.5 11.4531V12.7305C74.5 14.2773 74.4844 15.3164 74.4531 15.8477H68.3594V19.2461C68.3594 19.5586 68.3789 19.8672 68.418 20.1719C68.457 20.4688 68.543 20.7148 68.6758 20.9102C68.8164 21.1055 69.0391 21.2031 69.3438 21.2031C69.7812 21.2031 70.0547 21.0156 70.1641 20.6406C70.2734 20.2578 70.3281 19.7617 70.3281 19.1523V17.4648H74.5V18.4609C74.5 19.7734 74.3359 20.875 74.0078 21.7656C73.6875 22.6484 73.1406 23.3164 72.3672 23.7695C71.6016 24.2148 70.5547 24.4375 69.2266 24.4375ZM68.3359 13.7617H70.3281V11.3945C70.3281 10.7617 70.25 10.3086 70.0938 10.0352C69.9375 9.75391 69.7031 9.61328 69.3906 9.61328C69.0547 9.61328 68.793 9.74609 68.6055 10.0117C68.4258 10.2773 68.3359 10.7383 68.3359 11.3945V13.7617ZM22.9141 49.25V28.625H31.1641V32.6445H27.0625V35.9258H30.9531V39.8984H27.0625V49.25H22.9141ZM37.5391 49.4375C34.0391 49.4375 32.2891 47.6211 32.2891 43.9883V36.9336C32.2891 35.2773 32.7539 33.957 33.6836 32.9727C34.6133 31.9805 35.8984 31.4844 37.5391 31.4844C39.1875 31.4844 40.4766 31.9805 41.4062 32.9727C42.3359 33.957 42.8008 35.2773 42.8008 36.9336V43.9883C42.8008 47.6211 41.0469 49.4375 37.5391 49.4375ZM37.5391 46.2031C37.8906 46.2031 38.1406 46.0781 38.2891 45.8281C38.4453 45.5703 38.5234 45.2461 38.5234 44.8555V36.2656C38.5234 35.2422 38.1953 34.7305 37.5391 34.7305C36.8828 34.7305 36.5547 35.2422 36.5547 36.2656V44.8555C36.5547 45.2461 36.6289 45.5703 36.7773 45.8281C36.9336 46.0781 37.1875 46.2031 37.5391 46.2031ZM44.3594 49.25V31.6719H48.625V33.6289C48.8281 32.9492 49.1875 32.418 49.7031 32.0352C50.2188 31.6523 50.8672 31.4609 51.6484 31.4609V34.9648C51.3047 34.9648 50.8945 35.0039 50.418 35.082C49.9414 35.1523 49.5234 35.2539 49.1641 35.3867C48.8047 35.5117 48.625 35.6523 48.625 35.8086V49.25H44.3594ZM57.9648 49.4375C55.9961 49.4375 54.5977 48.9336 53.7695 47.9258C52.9492 46.918 52.5391 45.4375 52.5391 43.4844V38.0703C52.5391 36.6016 52.6953 35.3789 53.0078 34.4023C53.3203 33.4258 53.8672 32.6953 54.6484 32.2109C55.4297 31.7266 56.5156 31.4844 57.9062 31.4844C58.875 31.4844 59.7422 31.6562 60.5078 32C61.2812 32.3438 61.8906 32.8477 62.3359 33.5117C62.7812 34.1758 63.0039 34.9883 63.0039 35.9492V38.6328H58.7266V36.1719C58.7266 35.7656 58.668 35.4258 58.5508 35.1523C58.4336 34.8711 58.1797 34.7305 57.7891 34.7305C57.1016 34.7305 56.7578 35.2188 56.7578 36.1953V44.7148C56.7578 45.0742 56.8359 45.4062 56.9922 45.7109C57.1484 46.0078 57.4062 46.1562 57.7656 46.1562C58.1328 46.1562 58.3867 46.0117 58.5273 45.7227C58.6758 45.4258 58.75 45.082 58.75 44.6914V41.7383H63.0039V44.8086C63.0039 45.7773 62.7852 46.6094 62.3477 47.3047C61.918 47.9922 61.3242 48.5195 60.5664 48.8867C59.8086 49.2539 58.9414 49.4375 57.9648 49.4375ZM69.3906 49.4375C68.1406 49.4375 67.1445 49.2031 66.4023 48.7344C65.6602 48.2656 65.1289 47.5898 64.8086 46.707C64.4883 45.8242 64.3281 44.7617 64.3281 43.5195V36.4531C64.3281 34.8203 64.7969 33.5859 65.7344 32.75C66.6719 31.9062 67.9609 31.4844 69.6016 31.4844C72.9766 31.4844 74.6641 33.1406 74.6641 36.4531V37.7305C74.6641 39.2773 74.6484 40.3164 74.6172 40.8477H68.5234V44.2461C68.5234 44.5586 68.543 44.8672 68.582 45.1719C68.6211 45.4688 68.707 45.7148 68.8398 45.9102C68.9805 46.1055 69.2031 46.2031 69.5078 46.2031C69.9453 46.2031 70.2188 46.0156 70.3281 45.6406C70.4375 45.2578 70.4922 44.7617 70.4922 44.1523V42.4648H74.6641V43.4609C74.6641 44.7734 74.5 45.875 74.1719 46.7656C73.8516 47.6484 73.3047 48.3164 72.5312 48.7695C71.7656 49.2148 70.7188 49.4375 69.3906 49.4375ZM68.5 38.7617H70.4922V36.3945C70.4922 35.7617 70.4141 35.3086 70.2578 35.0352C70.1016 34.7539 69.8672 34.6133 69.5547 34.6133C69.2188 34.6133 68.957 34.7461 68.7695 35.0117C68.5898 35.2773 68.5 35.7383 68.5 36.3945V38.7617Z" fill="#D9D9D9"/>
</svg>
