<svg width="60" height="40" viewBox="0 0 60 40" fill="none" xmlns="http://www.w3.org/2000/svg">
<path d="M56.2627 16.805H3.85725C2.14945 16.805 0.764999 18.1894 0.764999 19.8972V20.2227C0.764999 21.9305 2.14945 23.315 3.85725 23.315H56.2627C57.9706 23.315 59.355 21.9305 59.355 20.2227V19.8972C59.355 18.1894 57.9706 16.805 56.2627 16.805Z" fill="#D9D9D9"/>
<path d="M56.2627 33.08H3.85725C2.14945 33.08 0.764999 34.4645 0.764999 36.1723V36.4977C0.764999 38.2056 2.14945 39.59 3.85725 39.59H56.2627C57.9706 39.59 59.355 38.2056 59.355 36.4977V36.1723C59.355 34.4645 57.9706 33.08 56.2627 33.08Z" fill="#D9D9D9"/>
<path d="M56.2627 0.529999H3.85725C2.14945 0.529999 0.764999 1.91445 0.764999 3.62225V3.94775C0.764999 5.65555 2.14945 7.04 3.85725 7.04H56.2627C57.9706 7.04 59.355 5.65555 59.355 3.94775V3.62225C59.355 1.91445 57.9706 0.529999 56.2627 0.529999Z" fill="#D9D9D9"/>
</svg>
