<svg width="79" height="79" viewBox="0 0 79 79" fill="none" xmlns="http://www.w3.org/2000/svg">
<path d="M65.2627 35.805H12.8572C11.1494 35.805 9.765 37.1894 9.765 38.8972V39.2227C9.765 40.9305 11.1494 42.315 12.8572 42.315H65.2627C66.9706 42.315 68.355 40.9305 68.355 39.2227V38.8972C68.355 37.1894 66.9706 35.805 65.2627 35.805Z" fill="#D9D9D9"/>
<path d="M65.2627 52.08H12.8572C11.1494 52.08 9.765 53.4645 9.765 55.1723V55.4977C9.765 57.2056 11.1494 58.59 12.8572 58.59H65.2627C66.9706 58.59 68.355 57.2056 68.355 55.4977V55.1723C68.355 53.4645 66.9706 52.08 65.2627 52.08Z" fill="#D9D9D9"/>
<path d="M65.2627 19.53H12.8572C11.1494 19.53 9.765 20.9144 9.765 22.6222V22.9477C9.765 24.6556 11.1494 26.04 12.8572 26.04H65.2627C66.9706 26.04 68.355 24.6556 68.355 22.9477V22.6222C68.355 20.9144 66.9706 19.53 65.2627 19.53Z" fill="#D9D9D9"/>
</svg>
