<svg width="58" height="57" viewBox="0 0 58 57" fill="none" xmlns="http://www.w3.org/2000/svg">
<path d="M28.87 2C14.3062 2 2.5 13.8062 2.5 28.37C2.5 42.9336 14.3062 54.74 28.87 54.74C43.4336 54.74 55.24 42.9336 55.24 28.37C55.24 13.8062 43.4336 2 28.87 2Z" stroke="#D9D9D9" stroke-width="3.9555" stroke-linecap="round" stroke-linejoin="round"/>
<path d="M8.48863 45.1036C8.48863 45.1036 14.3666 37.5995 28.87 37.5995C43.3735 37.5995 49.2516 45.1036 49.2516 45.1036" stroke="#D9D9D9" stroke-width="3.9555" stroke-linecap="round" stroke-linejoin="round"/>
<path d="M28.87 28.37C33.2392 28.37 36.781 24.8282 36.781 20.459C36.781 16.0899 33.2392 12.548 28.87 12.548C24.5008 12.548 20.959 16.0899 20.959 20.459C20.959 24.8282 24.5008 28.37 28.87 28.37Z" stroke="#D9D9D9" stroke-width="3.9555" stroke-linecap="round" stroke-linejoin="round"/>
</svg>
