<svg width="106" height="20" viewBox="0 0 106 20" fill="none" xmlns="http://www.w3.org/2000/svg">
<path d="M35.767 4.19261H41.4022C42.7605 4.19261 43.9096 4.4057 44.8495 4.83188C45.7148 5.19769 46.4496 5.81858 46.957 6.6127C47.432 7.3972 47.6754 8.3013 47.6589 9.21959C47.6693 10.1421 47.4164 11.0483 46.9302 11.8306C46.3878 12.6571 45.6122 13.3018 44.7029 13.682C43.7066 14.1386 42.4715 14.3663 40.9977 14.3649H35.767V4.19261ZM40.9399 11.7767C41.855 11.7767 42.5582 11.547 43.0495 11.0876C43.2986 10.8447 43.4932 10.5511 43.6203 10.2264C43.7474 9.90174 43.804 9.55352 43.7864 9.20506C43.8017 8.8816 43.7514 8.55839 43.6386 8.25509C43.5258 7.9518 43.3527 7.67476 43.13 7.44085C42.6896 7.00083 42.027 6.78013 41.1422 6.77875H39.3793V11.7767H40.9399Z" fill="white"/>
<path d="M56.0974 14.3483C55.3539 14.161 54.6427 13.8622 53.9877 13.462V11.0502C54.5596 11.4684 55.2034 11.7767 55.8868 11.9593C56.6344 12.1887 57.411 12.3082 58.1925 12.3142C58.4623 12.3287 58.7318 12.2819 58.981 12.1773C59.1586 12.0859 59.2473 11.9697 59.2473 11.8493C59.2492 11.7821 59.2374 11.7151 59.2125 11.6526C59.1877 11.5902 59.1503 11.5335 59.1028 11.4861C58.938 11.3586 58.7444 11.2738 58.5393 11.2391L56.8054 10.8468C55.8118 10.6144 55.1065 10.2927 54.6896 9.8817C54.4802 9.66942 54.3171 9.41569 54.2105 9.13664C54.1039 8.85758 54.0561 8.55929 54.0703 8.26069C54.0633 7.71954 54.2594 7.19561 54.6194 6.79328C55.0462 6.3393 55.5844 6.00642 56.1799 5.82815C56.9462 5.58596 57.7465 5.47031 58.5496 5.48568C59.2993 5.4786 60.047 5.56647 60.7748 5.7472C61.3628 5.88727 61.9274 6.11239 62.451 6.41553V8.69863C61.9599 8.41218 61.4321 8.19498 60.8822 8.05314C60.2864 7.89251 59.6722 7.81156 59.0554 7.81237C58.1499 7.81237 57.6971 7.96735 57.6971 8.2773C57.6956 8.34632 57.7144 8.41425 57.7511 8.47259C57.7878 8.53092 57.8408 8.57706 57.9035 8.60523C58.1509 8.711 58.4102 8.78627 58.6755 8.82939L60.1205 9.09091C61.059 9.25696 61.7588 9.54753 62.2198 9.96264C62.6808 10.3778 62.912 10.9852 62.9134 11.785C62.9207 12.2055 62.8184 12.6207 62.6167 12.9892C62.415 13.3577 62.1209 13.6667 61.7636 13.8854C61.0026 14.3988 59.9161 14.6548 58.5042 14.6534C57.6923 14.6546 56.8835 14.5521 56.0974 14.3483Z" fill="white"/>
<path d="M66.3276 14.0432C65.555 13.6863 64.904 13.1088 64.4553 12.3827C64.0368 11.6707 63.8225 10.856 63.8361 10.0291C63.8236 9.20257 64.0494 8.39013 64.4863 7.68991C64.9519 6.97521 65.6148 6.41259 66.3936 6.07098C67.3406 5.65609 68.3665 5.45488 69.3991 5.48153C70.844 5.48153 72.0433 5.78663 72.997 6.39684V9.05977C72.6342 8.81454 72.2379 8.62366 71.8204 8.49315C71.3531 8.34481 70.8655 8.27127 70.3755 8.27522C69.4796 8.27522 68.7785 8.43988 68.272 8.7692C68.0444 8.89695 67.8545 9.08305 67.7216 9.30857C67.5887 9.5341 67.5176 9.79099 67.5155 10.0531C67.5134 10.3152 67.5804 10.5733 67.7096 10.8009C67.8389 11.0285 68.0258 11.2177 68.2514 11.3491C68.7427 11.6826 69.4555 11.8493 70.3899 11.8493C70.8722 11.8505 71.3521 11.7805 71.8142 11.6418C72.2357 11.5202 72.6407 11.3466 73.0197 11.1249V13.6986C71.9028 14.3534 70.6277 14.6852 69.3351 14.6575C68.2991 14.686 67.2704 14.4758 66.3276 14.0432Z" fill="white"/>
<path d="M76.5949 14.0432C75.8137 13.6845 75.1511 13.1083 74.6855 12.3827C74.2468 11.6724 74.019 10.8507 74.0291 10.0145C74.0151 9.18827 74.2434 8.37616 74.6855 7.67954C75.1536 6.97243 75.8133 6.41495 76.5867 6.07307C78.4862 5.29815 80.6114 5.29815 82.5109 6.07307C83.2812 6.41234 83.9383 6.96709 84.4038 7.67124C84.843 8.37043 85.069 9.18357 85.054 10.0104C85.0643 10.8457 84.8388 11.6669 84.4038 12.3786C83.9433 13.1046 83.2838 13.6813 82.5047 14.039C81.5711 14.4416 80.5657 14.6492 79.5498 14.6492C78.5339 14.6492 77.5286 14.4416 76.5949 14.039V14.0432ZM80.9855 11.4653C81.164 11.28 81.303 11.06 81.3939 10.8187C81.4847 10.5774 81.5256 10.32 81.5139 10.0623C81.5264 9.80695 81.4859 9.55181 81.3949 9.3131C81.3039 9.07439 81.1645 8.85735 80.9855 8.67581C80.7913 8.49677 80.5634 8.35876 80.3152 8.26998C80.067 8.18121 79.8035 8.14346 79.5405 8.159C79.2777 8.1451 79.0147 8.1836 78.7667 8.2723C78.5188 8.36099 78.2907 8.49813 78.0956 8.67581C77.9173 8.85776 77.7785 9.07491 77.6878 9.31355C77.5972 9.5522 77.5569 9.80714 77.5692 10.0623C77.5577 10.3198 77.5984 10.577 77.6889 10.8183C77.7793 11.0595 77.9177 11.2796 78.0956 11.4653C78.2888 11.6466 78.5163 11.7869 78.7645 11.8778C79.0128 11.9688 79.2767 12.0085 79.5405 11.9946C79.8046 12.0101 80.0689 11.9711 80.3174 11.8801C80.5659 11.789 80.7932 11.6479 80.9855 11.4653Z" fill="white"/>
<path d="M93.7382 6.01909V9.16147C93.3068 8.90264 92.8095 8.77638 92.3077 8.79825C91.5377 8.79825 90.9432 9.03486 90.5304 9.50394C90.1175 9.97301 89.9111 10.7015 89.9111 11.6895V14.3628H86.371V5.86342H89.8389V8.56164C90.0315 7.57368 90.3425 6.84516 90.7719 6.37608C90.9801 6.14542 91.2355 5.96289 91.5206 5.84106C91.8057 5.71923 92.1136 5.66101 92.4233 5.6704C92.8857 5.65771 93.3421 5.77873 93.7382 6.01909Z" fill="white"/>
<path d="M105.5 3.90204V14.3628H101.96V12.4533C101.693 13.1331 101.213 13.7072 100.593 14.0888C99.9091 14.4809 99.1307 14.6762 98.3434 14.6534C97.6026 14.6707 96.8733 14.4663 96.2482 14.066C95.6429 13.6706 95.1607 13.1117 94.857 12.4533C94.5255 11.7266 94.3605 10.9343 94.3739 10.1349C94.3506 9.30609 94.5262 8.4838 94.8859 7.73765C95.2165 7.05423 95.7324 6.47863 96.3742 6.07722C97.0339 5.67533 97.793 5.46885 98.5643 5.48153C100.249 5.48153 101.381 6.21766 101.96 7.68992V3.90204H105.5ZM101.44 11.4155C101.62 11.237 101.762 11.0226 101.855 10.786C101.949 10.5494 101.992 10.2959 101.983 10.0415C101.99 9.79476 101.946 9.54917 101.852 9.32092C101.759 9.09268 101.618 8.88696 101.44 8.71731C101.035 8.38576 100.528 8.20473 100.006 8.20473C99.4839 8.20473 98.9776 8.38576 98.5725 8.71731C98.3946 8.89085 98.2551 9.10012 98.163 9.3315C98.0709 9.56287 98.0282 9.81116 98.0379 10.0602C98.0288 10.3116 98.0723 10.5621 98.1654 10.7955C98.2586 11.029 98.3994 11.2402 98.5787 11.4155C98.7684 11.5928 98.9913 11.7302 99.2345 11.8196C99.4777 11.9091 99.7361 11.9488 99.9948 11.9365C100.258 11.9511 100.522 11.9125 100.77 11.8231C101.018 11.7336 101.246 11.595 101.44 11.4155Z" fill="white"/>
<path d="M22.7315 1.67497C21.0072 0.881212 19.1869 0.318094 17.3171 0C17.0612 0.459917 16.8297 0.933111 16.6235 1.4176C14.6318 1.11582 12.6063 1.11582 10.6146 1.4176C10.4083 0.933161 10.1768 0.459973 9.92102 0C8.04999 0.32078 6.22849 0.885235 4.50248 1.67912C1.07589 6.77667 0.147001 11.7476 0.611447 16.648C2.61814 18.1388 4.8642 19.2725 7.252 20C7.78966 19.2729 8.26542 18.5015 8.67424 17.6941C7.89775 17.4025 7.14831 17.0427 6.43457 16.6189C6.62242 16.4819 6.80613 16.3408 6.98365 16.2038C9.06045 17.1859 11.3272 17.695 13.6221 17.695C15.9171 17.695 18.1838 17.1859 20.2606 16.2038C20.4402 16.3512 20.6239 16.4923 20.8097 16.6189C20.0946 17.0434 19.3438 17.4038 18.5659 17.6961C18.9742 18.5032 19.45 19.2739 19.9882 20C22.378 19.2755 24.6258 18.1422 26.6328 16.6501C27.1778 10.9672 25.7019 6.04193 22.7315 1.67497ZM9.26254 13.6343C7.96828 13.6343 6.89902 12.4533 6.89902 11.0004C6.89902 9.54753 7.93112 8.35616 9.25841 8.35616C10.5857 8.35616 11.6467 9.54753 11.624 11.0004C11.6013 12.4533 10.5816 13.6343 9.26254 13.6343ZM17.9817 13.6343C16.6854 13.6343 15.6203 12.4533 15.6203 11.0004C15.6203 9.54753 16.6524 8.35616 17.9817 8.35616C19.3111 8.35616 20.3638 9.54753 20.3411 11.0004C20.3184 12.4533 19.3008 13.6343 17.9817 13.6343Z" fill="white"/>
<path d="M50.6437 6.76837C51.6184 6.76837 52.4086 6.0547 52.4086 5.17434C52.4086 4.29399 51.6184 3.58032 50.6437 3.58032C49.669 3.58032 48.8788 4.29399 48.8788 5.17434C48.8788 6.0547 49.669 6.76837 50.6437 6.76837Z" fill="white"/>
<path d="M48.8767 7.86633C49.4358 8.1026 50.0362 8.2243 50.6427 8.2243C51.2491 8.2243 51.8495 8.1026 52.4086 7.86633V14.4085H48.8767V7.86633Z" fill="white"/>
</svg>
