<svg width="28" height="22" viewBox="0 0 28 22" fill="none" xmlns="http://www.w3.org/2000/svg">
<path d="M23.7187 1.82125C21.9062 0.999625 19.9682 0.402505 17.942 0.0625C17.6932 0.498375 17.4025 1.08464 17.2021 1.551C15.0482 1.23718 12.9142 1.23718 10.8 1.551C10.5996 1.08464 10.3023 0.498375 10.0513 0.0625C8.02294 0.402505 6.08272 1.00182 4.27023 1.8256C0.614416 7.17803 -0.376613 12.3975 0.118903 17.5429C2.54363 19.2972 4.89348 20.363 7.20367 21.0603C7.77407 20.2997 8.28279 19.4912 8.72104 18.6391C7.88638 18.3318 7.08695 17.9526 6.33159 17.5124C6.53198 17.3686 6.728 17.2182 6.91738 17.0634C11.5246 19.1512 16.5304 19.1512 21.0825 17.0634C21.2741 17.2182 21.4701 17.3686 21.6683 17.5124C20.9107 17.9548 20.1091 18.334 19.2745 18.6413C19.7127 19.4912 20.2192 20.3019 20.7918 21.0625C23.1042 20.3651 25.4563 19.2994 27.881 17.5429C28.4624 11.5781 26.8878 6.40654 23.7187 1.82125ZM9.34871 14.3785C7.96567 14.3785 6.83148 13.1276 6.83148 11.6042C6.83148 10.0809 7.94146 8.82778 9.34871 8.82778C10.756 8.82778 11.8902 10.0787 11.8659 11.6042C11.8681 13.1276 10.756 14.3785 9.34871 14.3785ZM18.6512 14.3785C17.2682 14.3785 16.134 13.1276 16.134 11.6042C16.134 10.0809 17.2439 8.82778 18.6512 8.82778C20.0584 8.82778 21.1926 10.0787 21.1684 11.6042C21.1684 13.1276 20.0584 14.3785 18.6512 14.3785Z" fill="#181818"/>
</svg>
