<svg width="26" height="26" viewBox="0 0 26 26" fill="none" xmlns="http://www.w3.org/2000/svg">
<path fill-rule="evenodd" clip-rule="evenodd" d="M25.25 13C25.25 19.7655 19.7655 25.25 13 25.25C6.23451 25.25 0.75 19.7655 0.75 13C0.75 6.23451 6.23451 0.75 13 0.75C19.7655 0.75 25.25 6.23451 25.25 13ZM13.1645 8.96679C11.6534 9.59177 8.64398 10.88 4.12345 12.8187C3.40017 13.1121 3.0127 13.3927 2.97395 13.6733C2.91675 14.1478 3.51814 14.3321 4.32942 14.5807C4.43411 14.6128 4.54229 14.646 4.653 14.6809C5.45378 14.936 6.51288 15.2294 7.06826 15.2422C7.57197 15.2549 8.12735 15.0508 8.74731 14.6299C12.9708 11.8111 15.1406 10.3826 15.2827 10.3571C15.386 10.3316 15.5152 10.306 15.6056 10.3826C15.696 10.4591 15.696 10.6122 15.6831 10.6504C15.6215 10.904 13.1018 13.2139 11.9552 14.2651C11.6598 14.5359 11.4556 14.7232 11.408 14.7702C11.2868 14.8934 11.1635 15.01 11.0449 15.1221C10.3035 15.8228 9.74716 16.3487 11.0722 17.2064C11.6745 17.5991 12.1604 17.9264 12.6388 18.2488C13.217 18.6384 13.7844 19.0207 14.5336 19.5023C14.7101 19.6167 14.8791 19.7354 15.0439 19.8512C15.6873 20.3032 16.2679 20.7111 16.9876 20.6502C17.4009 20.6119 17.8271 20.2293 18.0467 19.0813C18.5633 16.3773 19.5708 10.4974 19.8032 8.07395C19.8291 7.86987 19.8032 7.60202 19.7774 7.47448C19.7516 7.34693 19.7128 7.18112 19.5578 7.05357C19.3641 6.90051 19.08 6.875 18.9508 6.875C18.3696 6.88775 17.4655 7.19387 13.1645 8.96679Z" fill="#181818"/>
</svg>
