<svg width="28" height="20" viewBox="0 0 28 20" fill="none" xmlns="http://www.w3.org/2000/svg">
<path fill-rule="evenodd" clip-rule="evenodd" d="M24.939 0.949965C26.1445 1.26687 27.0919 2.19723 27.4145 3.38112C27.9976 5.52478 28 10 28 10C28 10 28 14.4752 27.4145 16.6189C27.0919 17.8028 26.1445 18.7331 24.939 19.05C22.7564 19.625 14 19.625 14 19.625C14 19.625 5.24366 19.625 3.06091 19.05C1.85545 18.7331 0.908133 17.8028 0.585446 16.6189C0 14.4752 0 10 0 10C0 10 0 5.52478 0.585446 3.38112C0.908133 2.19723 1.85545 1.26687 3.06091 0.949965C5.24366 0.375 14 0.375 14 0.375C14 0.375 22.7564 0.375 24.939 0.949965ZM18.4718 10.0003L11.1975 14.1246V5.87592L18.4718 10.0003Z" fill="#181818"/>
</svg>
